<svg width="607" height="113" viewBox="0 0 607 113" fill="none" xmlns="http://www.w3.org/2000/svg">
<path d="M56.155 112.31C41.155 112.31 27.055 106.47 16.455 95.86C7.25499 86.66 1.50498 74.47 0.264984 61.54C1.50498 70.66 5.58499 78.94 12.115 85.47C19.945 93.3 30.345 97.61 41.415 97.61C42.105 97.61 42.795 97.59 43.485 97.56C50.595 103.17 59.505 106.26 68.595 106.26C79.425 106.26 89.615 102.04 97.275 94.38L95.865 95.87C85.255 106.48 71.155 112.32 56.155 112.32V112.31Z" fill="url(#paint0_linear_1_28)"/>
<path d="M97.285 94.39L95.835 95.84C73.915 117.76 38.385 117.76 16.465 95.84C6.875 86.25 1.47499 74.06 0.274994 61.54C1.41499 70.3 5.345 78.76 12.075 85.49C20.695 94.11 32.175 98.15 43.465 97.59C59.385 110.17 82.565 109.1 97.275 94.4L97.285 94.39Z" fill="url(#paint1_linear_1_28)"/>
<path d="M70.735 26.85C70.155 26.27 69.535 25.69 68.905 25.13C61.335 18.41 51.575 14.71 41.425 14.71C30.355 14.71 19.945 19.02 12.115 26.85C5.58501 33.38 1.51501 41.65 0.325012 50.78C1.50501 37.85 7.25501 25.66 16.465 16.45C27.075 5.84 41.175 0 56.165 0C71.155 0 85.255 5.84 95.865 16.45L117.755 38.34L109.495 46.64L100.015 56.12L70.735 26.84V26.85Z" fill="url(#paint2_linear_1_28)"/>
<path d="M117.735 38.37L109.475 46.63L100.015 56.09L80.245 36.32L70.755 26.83C70.155 26.24 69.545 25.66 68.925 25.11C61.095 18.16 51.255 14.68 41.425 14.68C30.805 14.68 20.195 18.73 12.095 26.83C5.36498 33.56 1.43498 42.02 0.294983 50.78C1.49498 38.26 6.89498 26.07 16.485 16.48C27.445 5.53 41.805 0.0400085 56.165 0.0400085C70.525 0.0400085 84.885 5.52 95.845 16.48L117.735 38.37Z" fill="url(#paint3_linear_1_28)"/>
<path d="M41.405 97.67C30.325 97.67 19.905 93.35 12.065 85.51C5.525 78.97 1.445 70.68 0.255 61.54C-0.085 57.97 -0.085 54.37 0.255 50.82C1.455 41.63 5.535 33.35 12.065 26.81C19.905 18.97 30.325 14.65 41.415 14.65C51.575 14.65 61.355 18.36 68.935 25.09C69.575 25.65 70.195 26.23 70.765 26.81L80.235 36.28C74.905 31.04 67.875 28.12 60.385 28.12C54.525 28.12 48.925 29.9 44.175 33.28C42.905 34.18 41.685 35.21 40.565 36.34L40.175 36.73L39.935 36.97C24.075 52.83 24.075 78.56 39.895 94.38C41.035 95.52 42.245 96.59 43.485 97.57C42.775 97.65 42.085 97.67 41.395 97.67H41.405Z" fill="url(#paint4_linear_1_28)"/>
<path d="M80.235 36.32C74.755 30.84 67.575 28.1 60.395 28.1C54.705 28.1 49.015 29.82 44.175 33.26C42.905 34.16 41.695 35.18 40.565 36.32C40.435 36.45 40.305 36.58 40.175 36.71C40.075 36.8 39.985 36.9 39.885 36.99C24.035 52.84 24.035 78.54 39.885 94.39C41.035 95.54 42.235 96.61 43.485 97.58C32.195 98.14 20.715 94.11 12.095 85.48C5.365 78.75 1.43501 70.29 0.295009 61.53V61.51C-0.0449915 57.95 -0.0449915 54.37 0.295009 50.82C0.295009 50.81 0.295009 50.79 0.295009 50.78C1.43501 42.02 5.375 33.56 12.095 26.83C20.195 18.73 30.805 14.68 41.425 14.68C51.255 14.68 61.085 18.15 68.925 25.11C69.545 25.66 70.165 26.24 70.755 26.83L80.245 36.32H80.235Z" fill="url(#paint5_linear_1_28)"/>
<path d="M43.465 97.61C42.215 96.63 41.005 95.56 39.865 94.41C24.025 78.57 24.025 52.8 39.865 36.97L40.155 36.69C29.685 47.65 29.855 65.26 40.585 75.98C45.875 81.27 52.915 84.19 60.405 84.19C67.865 84.19 74.885 81.29 80.175 76.04L70.775 85.52C63.475 92.82 53.785 97.12 43.485 97.63H43.475L43.465 97.61Z" fill="url(#paint6_linear_1_28)"/>
<path d="M80.185 76.05L70.745 85.49C63.165 93.07 53.395 97.1 43.475 97.59C42.235 96.61 41.025 95.54 39.875 94.4C24.025 78.55 24.025 52.85 39.875 37C39.965 36.91 40.065 36.81 40.165 36.72C29.595 47.7 29.725 65.18 40.555 76.01C51.495 86.95 69.225 86.97 80.185 76.06V76.05Z" fill="url(#paint7_linear_1_28)"/>
<path d="M235.135 50.78C233.945 41.65 229.865 33.38 223.345 26.85C215.515 19.02 205.105 14.71 194.035 14.71C193.345 14.71 192.665 14.73 191.985 14.76C184.865 9.14999 175.955 6.06 166.875 6.06C156.045 6.06 145.855 10.28 138.195 17.94L139.605 16.45C150.205 5.85 164.305 0.0100098 179.305 0.0100098C194.305 0.0100098 208.405 5.85 219.015 16.45C228.215 25.65 233.965 37.84 235.205 50.77H235.145L235.135 50.78Z" fill="url(#paint8_linear_1_28)"/>
<path d="M235.165 50.78C234.025 42.02 230.085 33.56 223.365 26.83C214.745 18.21 203.265 14.18 191.985 14.73C176.055 2.15002 152.875 3.22002 138.175 17.92L139.625 16.47C161.545 -5.43996 197.075 -5.43996 218.995 16.47C228.585 26.06 233.975 38.25 235.175 50.77L235.165 50.78Z" fill="url(#paint9_linear_1_28)"/>
<path d="M68.585 106.31C59.485 106.31 50.565 103.22 43.465 97.61C53.765 97.05 63.445 92.76 70.735 85.47L100.065 56.14L99.995 56.11L109.455 46.61L117.715 38.35L138.155 17.91C145.825 10.24 156.025 6.02002 166.875 6.02002C175.975 6.02002 184.895 9.11003 192.005 14.72C181.705 15.27 172.025 19.56 164.735 26.86L135.475 56.12L135.395 56.19L135.475 56.23L127.285 64.46L126.005 65.73L117.755 73.99L97.315 94.43C89.645 102.1 79.445 106.33 68.595 106.33L68.585 106.31Z" fill="url(#paint10_linear_1_28)"/>
<path d="M191.985 14.73C182.065 15.21 172.285 19.25 164.705 26.83L155.215 36.32L135.445 56.09L135.365 56.16L135.445 56.24L127.255 64.43L125.975 65.7L117.715 73.96L97.275 94.4C82.565 109.11 59.395 110.17 43.465 97.59C53.385 97.1 63.155 93.07 70.735 85.49L80.175 76.05L99.995 56.23L100.065 56.16L99.995 56.09L109.455 46.63L117.715 38.37L138.155 17.93C152.865 3.23001 176.035 2.17001 191.965 14.74L191.985 14.73Z" fill="url(#paint11_linear_1_28)"/>
<path d="M179.295 112.31C164.295 112.31 150.195 106.47 139.595 95.86L117.705 73.97L125.955 65.67L135.415 56.21L155.225 75.98L164.715 85.47C165.295 86.05 165.915 86.63 166.545 87.19C174.115 93.91 183.865 97.61 194.025 97.61C205.095 97.61 215.505 93.3 223.335 85.47C229.865 78.94 233.935 70.66 235.125 61.53C233.945 74.47 228.195 86.66 218.995 95.86C208.385 106.47 194.285 112.31 179.295 112.31Z" fill="url(#paint12_linear_1_28)"/>
<path d="M235.165 61.54C233.965 74.06 228.575 86.26 218.985 95.84C208.025 106.8 193.665 112.28 179.305 112.28C164.945 112.28 150.585 106.8 139.625 95.84L117.735 73.95L125.995 65.69L127.275 64.42L135.465 56.23L155.235 76L164.725 85.49C165.325 86.09 165.935 86.66 166.555 87.21C174.385 94.16 184.215 97.64 194.045 97.64C204.665 97.64 215.275 93.59 223.375 85.49C230.105 78.76 234.035 70.3 235.175 61.54H235.165Z" fill="url(#paint13_linear_1_28)"/>
<path d="M194.035 97.67C183.865 97.67 174.095 93.96 166.525 87.23C165.885 86.67 165.275 86.09 164.695 85.51L155.205 76.02C160.535 81.27 167.575 84.19 175.065 84.19C180.955 84.19 186.575 82.39 191.335 78.99C192.595 78.09 193.795 77.07 194.895 75.98C195.005 75.87 195.115 75.76 195.215 75.65C195.335 75.54 195.455 75.42 195.565 75.31C211.385 59.49 211.385 33.76 195.565 17.94C194.435 16.81 193.225 15.73 191.975 14.75C192.675 14.67 193.365 14.65 194.045 14.65C205.135 14.65 215.555 18.97 223.395 26.81C229.925 33.35 234.005 41.63 235.205 50.77C235.545 54.37 235.545 57.97 235.205 61.51C234.015 70.67 229.935 78.96 223.395 85.5C215.555 93.34 205.125 97.66 194.045 97.66L194.035 97.67Z" fill="url(#paint14_linear_1_28)"/>
<path d="M235.165 61.51V61.53C234.025 70.29 230.095 78.75 223.365 85.48C215.265 93.58 204.645 97.63 194.035 97.63C184.205 97.63 174.375 94.16 166.545 87.2C165.925 86.65 165.305 86.07 164.715 85.48L155.225 75.99C160.705 81.47 167.885 84.21 175.065 84.21C180.775 84.21 186.495 82.48 191.345 79.01C192.595 78.12 193.785 77.11 194.905 76C195.015 75.89 195.125 75.78 195.225 75.67C195.345 75.56 195.465 75.44 195.575 75.33C211.425 59.48 211.425 33.77 195.575 17.92C194.425 16.77 193.225 15.71 191.985 14.73C203.275 14.17 214.745 18.2 223.365 26.83C230.085 33.56 234.025 42.02 235.165 50.78C235.165 50.79 235.165 50.81 235.165 50.82C235.495 54.38 235.495 57.96 235.165 61.51Z" fill="url(#paint15_linear_1_28)"/>
<path d="M195.195 75.65C205.775 64.73 205.635 47.09 194.875 36.34C189.575 31.05 182.535 28.13 175.055 28.13C167.575 28.13 160.525 31.05 155.235 36.34L164.685 26.81C171.985 19.51 181.685 15.21 191.975 14.7C193.245 15.69 194.455 16.76 195.585 17.9C211.425 33.74 211.425 59.51 195.585 75.35C195.465 75.47 195.355 75.58 195.235 75.69L195.195 75.65Z" fill="url(#paint16_linear_1_28)"/>
<path d="M195.575 75.33C195.455 75.45 195.345 75.56 195.225 75.67C205.865 64.69 205.755 47.16 194.905 36.32C183.945 25.36 166.175 25.36 155.225 36.32L164.715 26.83C172.295 19.25 182.065 15.22 191.995 14.73C193.235 15.71 194.435 16.77 195.585 17.92C211.435 33.77 211.435 59.48 195.585 75.33H195.575Z" fill="url(#paint17_linear_1_28)"/>
<path d="M254.565 106.1V6H275.425L327.875 70.64V6H348.585V106.1H329.235L275.275 39.32V106.1H254.565Z" fill="url(#paint18_linear_1_28)"/>
<path d="M404.955 107.53C397.095 107.53 389.965 105.81 383.565 102.38C377.165 98.95 372.105 94.33 368.375 88.51C364.645 82.7 362.785 76.17 362.785 68.92C362.785 61.67 364.575 55.15 368.155 49.33C371.735 43.52 376.595 38.89 382.745 35.46C388.885 32.03 395.745 30.31 403.305 30.31C410.865 30.31 417.565 32.05 423.405 35.53C429.245 39.01 433.855 43.78 437.235 49.83C440.605 55.89 442.295 62.72 442.295 70.35V75.5H383.955C384.865 78.46 386.345 81.13 388.415 83.51C390.475 85.89 393.045 87.73 396.125 89.02C399.195 90.31 402.495 90.95 406.025 90.95C409.555 90.95 412.805 90.45 415.775 89.45C418.745 88.45 421.295 87 423.405 85.09L437.005 96.82C432.165 100.54 427.205 103.25 422.115 104.97C417.025 106.69 411.305 107.54 404.965 107.54L404.955 107.53ZM383.635 61.49H421.875C421.165 58.54 419.885 55.94 418.025 53.7C416.155 51.46 413.945 49.7 411.375 48.41C408.805 47.12 405.955 46.48 402.835 46.48C399.715 46.48 396.835 47.1 394.215 48.34C391.595 49.58 389.375 51.32 387.565 53.56C385.755 55.8 384.445 58.45 383.635 61.5V61.49Z" fill="url(#paint19_linear_1_28)"/>
<path d="M440.625 106.1L470.855 68.21L441.385 31.6H465.565L482.795 53.76L500.025 31.6H523.305L494.285 67.92L525.115 106.1H500.935L482.345 82.36L463.755 106.1H440.635H440.625Z" fill="url(#paint20_linear_1_28)"/>
<path d="M564.555 107.53C556.695 107.53 549.565 105.81 543.165 102.38C536.765 98.95 531.725 94.33 528.055 88.51C524.375 82.7 522.535 76.17 522.535 68.92C522.535 61.67 524.375 55.12 528.055 49.26C531.735 43.4 536.765 38.75 543.165 35.32C549.565 31.89 556.695 30.17 564.555 30.17C572.415 30.17 579.545 31.89 585.945 35.32C592.345 38.75 597.385 43.4 601.055 49.26C604.735 55.12 606.575 61.68 606.575 68.92C606.575 76.16 604.735 82.7 601.055 88.51C597.375 94.33 592.335 98.95 585.945 102.38C579.545 105.81 572.415 107.53 564.555 107.53ZM564.555 90.52C568.685 90.52 572.385 89.54 575.665 87.59C578.935 85.64 581.535 83.04 583.445 79.8C585.355 76.56 586.315 72.94 586.315 68.93C586.315 64.92 585.355 61.16 583.445 57.92C581.525 54.68 578.935 52.08 575.665 50.13C572.385 48.18 568.685 47.2 564.555 47.2C560.425 47.2 556.845 48.18 553.525 50.13C550.195 52.09 547.575 54.68 545.665 57.92C543.745 61.16 542.795 64.83 542.795 68.93C542.795 73.03 543.755 76.56 545.665 79.8C547.575 83.04 550.195 85.64 553.525 87.59C556.855 89.55 560.525 90.52 564.555 90.52Z" fill="url(#paint21_linear_1_28)"/>
<defs>
<linearGradient id="paint0_linear_1_28" x1="0.254984" y1="86.93" x2="97.265" y2="86.93" gradientUnits="userSpaceOnUse">
<stop stop-color="#2891D0"/>
<stop offset="1" stop-color="#03405D"/>
</linearGradient>
<linearGradient id="paint1_linear_1_28" x1="0.284994" y1="86.91" x2="97.285" y2="86.91" gradientUnits="userSpaceOnUse">
<stop stop-color="#2891D0"/>
<stop offset="1" stop-color="#03405D"/>
</linearGradient>
<linearGradient id="paint2_linear_1_28" x1="0.315012" y1="28.07" x2="117.755" y2="28.07" gradientUnits="userSpaceOnUse">
<stop stop-color="#FDBB58"/>
<stop offset="1" stop-color="#F47521"/>
</linearGradient>
<linearGradient id="paint3_linear_1_28" x1="0.284983" y1="28.06" x2="117.735" y2="28.06" gradientUnits="userSpaceOnUse">
<stop stop-color="#FDBB58"/>
<stop offset="1" stop-color="#F47521"/>
</linearGradient>
<linearGradient id="paint4_linear_1_28" x1="0.005" y1="56.16" x2="80.245" y2="56.16" gradientUnits="userSpaceOnUse">
<stop stop-color="#03405D"/>
<stop offset="1" stop-color="#2891D0"/>
</linearGradient>
<linearGradient id="paint5_linear_1_28" x1="0.0350085" y1="56.16" x2="80.235" y2="56.16" gradientUnits="userSpaceOnUse">
<stop stop-color="#03405D"/>
<stop offset="1" stop-color="#2891D0"/>
</linearGradient>
<linearGradient id="paint6_linear_1_28" x1="27.985" y1="67.15" x2="80.165" y2="67.15" gradientUnits="userSpaceOnUse">
<stop stop-color="#03405D"/>
<stop offset="1" stop-color="#2891D0"/>
</linearGradient>
<linearGradient id="paint7_linear_1_28" x1="27.995" y1="67.15" x2="80.185" y2="67.15" gradientUnits="userSpaceOnUse">
<stop stop-color="#03405D"/>
<stop offset="1" stop-color="#2891D0"/>
</linearGradient>
<linearGradient id="paint8_linear_1_28" x1="138.185" y1="25.4" x2="235.195" y2="25.4" gradientUnits="userSpaceOnUse">
<stop stop-color="#03405D"/>
<stop offset="1" stop-color="#2891D0"/>
</linearGradient>
<linearGradient id="paint9_linear_1_28" x1="138.165" y1="25.41" x2="235.165" y2="25.41" gradientUnits="userSpaceOnUse">
<stop stop-color="#03405D"/>
<stop offset="1" stop-color="#2891D0"/>
</linearGradient>
<linearGradient id="paint10_linear_1_28" x1="43.465" y1="56.16" x2="191.995" y2="56.16" gradientUnits="userSpaceOnUse">
<stop stop-color="#F47521"/>
<stop offset="0.5" stop-color="#FDBB58"/>
<stop offset="1" stop-color="#F47521"/>
</linearGradient>
<linearGradient id="paint11_linear_1_28" x1="43.475" y1="56.16" x2="191.985" y2="56.16" gradientUnits="userSpaceOnUse">
<stop stop-color="#F47521"/>
<stop offset="0.5" stop-color="#FDBB58"/>
<stop offset="1" stop-color="#F47521"/>
</linearGradient>
<linearGradient id="paint12_linear_1_28" x1="117.715" y1="84.26" x2="235.135" y2="84.26" gradientUnits="userSpaceOnUse">
<stop stop-color="#F47521"/>
<stop offset="1" stop-color="#FDBB58"/>
</linearGradient>
<linearGradient id="paint13_linear_1_28" x1="117.735" y1="84.26" x2="235.165" y2="84.26" gradientUnits="userSpaceOnUse">
<stop stop-color="#F47521"/>
<stop offset="1" stop-color="#FDBB58"/>
</linearGradient>
<linearGradient id="paint14_linear_1_28" x1="155.195" y1="56.16" x2="235.445" y2="56.16" gradientUnits="userSpaceOnUse">
<stop stop-color="#2891D0"/>
<stop offset="1" stop-color="#03405D"/>
</linearGradient>
<linearGradient id="paint15_linear_1_28" x1="155.215" y1="56.16" x2="235.415" y2="56.16" gradientUnits="userSpaceOnUse">
<stop stop-color="#2891D0"/>
<stop offset="1" stop-color="#03405D"/>
</linearGradient>
<linearGradient id="paint16_linear_1_28" x1="155.235" y1="45.2" x2="207.475" y2="45.2" gradientUnits="userSpaceOnUse">
<stop stop-color="#2891D0"/>
<stop offset="1" stop-color="#03405D"/>
</linearGradient>
<linearGradient id="paint17_linear_1_28" x1="155.215" y1="45.2" x2="207.465" y2="45.2" gradientUnits="userSpaceOnUse">
<stop stop-color="#2891D0"/>
<stop offset="1" stop-color="#03405D"/>
</linearGradient>
<linearGradient id="paint18_linear_1_28" x1="301.565" y1="131.21" x2="301.565" y2="23.62" gradientUnits="userSpaceOnUse">
<stop stop-color="#03405D"/>
<stop offset="1" stop-color="#2891D0"/>
</linearGradient>
<linearGradient id="paint19_linear_1_28" x1="402.535" y1="131.21" x2="402.535" y2="23.62" gradientUnits="userSpaceOnUse">
<stop stop-color="#03405D"/>
<stop offset="1" stop-color="#2891D0"/>
</linearGradient>
<linearGradient id="paint20_linear_1_28" x1="440.625" y1="68.85" x2="525.115" y2="68.85" gradientUnits="userSpaceOnUse">
<stop stop-color="#FDBB58"/>
<stop offset="0.4" stop-color="#F47521"/>
<stop offset="0.6" stop-color="#F47A20"/>
<stop offset="1" stop-color="#FDBB58"/>
</linearGradient>
<linearGradient id="paint21_linear_1_28" x1="564.555" y1="131.21" x2="564.555" y2="23.62" gradientUnits="userSpaceOnUse">
<stop stop-color="#03405D"/>
<stop offset="1" stop-color="#2891D0"/>
</linearGradient>
</defs>
</svg>
