<?xml version="1.0" encoding="UTF-8"?>
<svg id="Layer_1" xmlns="http://www.w3.org/2000/svg" version="1.1" xmlns:xlink="http://www.w3.org/1999/xlink" viewBox="0 0 841.89 595.28">
  <!-- Generator: Adobe Illustrator 29.4.0, SVG Export Plug-In . SVG Version: 2.1.0 Build 152)  -->
  <defs>
    <style>
      .st0 {
        fill: url(#Gradiente_sem_nome_31);
      }

      .st1 {
        fill: url(#Gradiente_sem_nome_218);
      }

      .st2 {
        fill: url(#Gradiente_sem_nome_21);
      }

      .st3 {
        fill: url(#Gradiente_sem_nome_161);
      }

      .st4 {
        fill: url(#Gradiente_sem_nome_9);
      }

      .st5 {
        fill: url(#Gradiente_sem_nome_211);
      }

      .st6 {
        fill: url(#Gradiente_sem_nome_216);
      }

      .st7 {
        fill: url(#Gradiente_sem_nome_215);
      }

      .st8 {
        fill: url(#Gradiente_sem_nome_386);
      }

      .st9 {
        fill: url(#Gradiente_sem_nome_213);
      }

      .st10 {
        fill: url(#Gradiente_sem_nome_285);
      }

      .st11 {
        fill: url(#Gradiente_sem_nome_284);
      }

      .st12 {
        fill: url(#Gradiente_sem_nome_91);
      }

      .st13 {
        fill: url(#Gradiente_sem_nome_212);
      }

      .st14 {
        fill: url(#Gradiente_sem_nome_214);
      }

      .st15 {
        fill: url(#Gradiente_sem_nome_16);
      }

      .st16 {
        fill: url(#Gradiente_sem_nome_281);
      }

      .st17 {
        fill: url(#Gradiente_sem_nome_3);
      }

      .st18 {
        fill: url(#Gradiente_sem_nome_217);
      }

      .st19 {
        fill: url(#Gradiente_sem_nome_282);
      }

      .st20 {
        fill: url(#Gradiente_sem_nome_28);
      }

      .st21 {
        fill: url(#Gradiente_sem_nome_283);
      }
    </style>
    <linearGradient id="Gradiente_sem_nome_28" data-name="Gradiente sem nome 28" x1="101.69" y1="328.41" x2="198.7" y2="328.41" gradientUnits="userSpaceOnUse">
      <stop offset="0" stop-color="#2891d0"/>
      <stop offset="1" stop-color="#03405d"/>
    </linearGradient>
    <linearGradient id="Gradiente_sem_nome_281" data-name="Gradiente sem nome 28" x1="101.72" y1="328.39" x2="198.72" y2="328.39" xlink:href="#Gradiente_sem_nome_28"/>
    <linearGradient id="Gradiente_sem_nome_3" data-name="Gradiente sem nome 3" x1="101.75" y1="269.55" x2="219.19" y2="269.55" gradientUnits="userSpaceOnUse">
      <stop offset="0" stop-color="#fdbb58"/>
      <stop offset="1" stop-color="#f47521"/>
    </linearGradient>
    <linearGradient id="Gradiente_sem_nome_31" data-name="Gradiente sem nome 3" x1="101.72" y1="269.54" x2="219.17" y2="269.54" xlink:href="#Gradiente_sem_nome_3"/>
    <linearGradient id="Gradiente_sem_nome_21" data-name="Gradiente sem nome 21" x1="101.44" y1="297.64" x2="181.68" y2="297.64" gradientUnits="userSpaceOnUse">
      <stop offset="0" stop-color="#03405d"/>
      <stop offset="1" stop-color="#2891d0"/>
    </linearGradient>
    <linearGradient id="Gradiente_sem_nome_211" data-name="Gradiente sem nome 21" x1="101.47" y1="297.64" x2="181.67" y2="297.64" xlink:href="#Gradiente_sem_nome_21"/>
    <linearGradient id="Gradiente_sem_nome_212" data-name="Gradiente sem nome 21" x1="129.42" y1="308.63" x2="181.6" y2="308.63" xlink:href="#Gradiente_sem_nome_21"/>
    <linearGradient id="Gradiente_sem_nome_213" data-name="Gradiente sem nome 21" x1="129.43" y1="308.63" x2="181.62" y2="308.63" xlink:href="#Gradiente_sem_nome_21"/>
    <linearGradient id="Gradiente_sem_nome_214" data-name="Gradiente sem nome 21" x1="239.62" y1="266.88" x2="336.63" y2="266.88" xlink:href="#Gradiente_sem_nome_21"/>
    <linearGradient id="Gradiente_sem_nome_215" data-name="Gradiente sem nome 21" x1="239.6" y1="266.89" x2="336.6" y2="266.89" xlink:href="#Gradiente_sem_nome_21"/>
    <linearGradient id="Gradiente_sem_nome_16" data-name="Gradiente sem nome 16" x1="144.9" y1="297.64" x2="293.43" y2="297.64" gradientUnits="userSpaceOnUse">
      <stop offset="0" stop-color="#f47521"/>
      <stop offset=".5" stop-color="#fdbb58"/>
      <stop offset="1" stop-color="#f47521"/>
    </linearGradient>
    <linearGradient id="Gradiente_sem_nome_161" data-name="Gradiente sem nome 16" x1="144.91" y1="297.64" x2="293.42" y2="297.64" xlink:href="#Gradiente_sem_nome_16"/>
    <linearGradient id="Gradiente_sem_nome_9" data-name="Gradiente sem nome 9" x1="219.15" y1="325.74" x2="336.57" y2="325.74" gradientUnits="userSpaceOnUse">
      <stop offset="0" stop-color="#f47521"/>
      <stop offset="1" stop-color="#fdbb58"/>
    </linearGradient>
    <linearGradient id="Gradiente_sem_nome_91" data-name="Gradiente sem nome 9" x1="219.17" y1="325.74" x2="336.6" y2="325.74" xlink:href="#Gradiente_sem_nome_9"/>
    <linearGradient id="Gradiente_sem_nome_282" data-name="Gradiente sem nome 28" x1="256.63" y1="297.64" x2="336.88" y2="297.64" xlink:href="#Gradiente_sem_nome_28"/>
    <linearGradient id="Gradiente_sem_nome_283" data-name="Gradiente sem nome 28" x1="256.65" y1="297.64" x2="336.85" y2="297.64" xlink:href="#Gradiente_sem_nome_28"/>
    <linearGradient id="Gradiente_sem_nome_284" data-name="Gradiente sem nome 28" x1="256.67" y1="286.68" x2="308.91" y2="286.68" xlink:href="#Gradiente_sem_nome_28"/>
    <linearGradient id="Gradiente_sem_nome_285" data-name="Gradiente sem nome 28" x1="256.65" y1="286.68" x2="308.9" y2="286.68" xlink:href="#Gradiente_sem_nome_28"/>
    <linearGradient id="Gradiente_sem_nome_216" data-name="Gradiente sem nome 21" x1="435.41" y1="372.08" x2="435.41" y2="264.49" xlink:href="#Gradiente_sem_nome_21"/>
    <linearGradient id="Gradiente_sem_nome_217" data-name="Gradiente sem nome 21" x1="536.38" y1="372.08" x2="536.38" y2="264.49" xlink:href="#Gradiente_sem_nome_21"/>
    <linearGradient id="Gradiente_sem_nome_386" data-name="Gradiente sem nome 386" x1="574.47" y1="309.72" x2="658.96" y2="309.72" gradientUnits="userSpaceOnUse">
      <stop offset="0" stop-color="#fdbb58"/>
      <stop offset=".4" stop-color="#f47521"/>
      <stop offset=".6" stop-color="#f47a20"/>
      <stop offset="1" stop-color="#fdbb58"/>
    </linearGradient>
    <linearGradient id="Gradiente_sem_nome_218" data-name="Gradiente sem nome 21" x1="698.4" y1="372.08" x2="698.4" y2="264.49" xlink:href="#Gradiente_sem_nome_21"/>
  </defs>
  <g>
    <path class="st20" d="M157.59,353.79c-15,0-29.1-5.84-39.7-16.45-9.2-9.2-14.95-21.39-16.19-34.32,1.24,9.12,5.32,17.4,11.85,23.93,7.83,7.83,18.23,12.14,29.3,12.14.69,0,1.38-.02,2.07-.05,7.11,5.61,16.02,8.7,25.11,8.7h0c10.83,0,21.02-4.22,28.68-11.88l-1.41,1.49c-10.61,10.61-24.71,16.45-39.71,16.45Z"/>
    <path class="st16" d="M198.72,335.87l-1.45,1.45c-21.92,21.92-57.45,21.92-79.37,0-9.59-9.59-14.99-21.78-16.19-34.3,1.14,8.76,5.07,17.22,11.8,23.95,8.62,8.62,20.1,12.66,31.39,12.1,15.92,12.58,39.1,11.51,53.81-3.19Z"/>
    <path class="st17" d="M172.17,268.33c-.58-.58-1.2-1.16-1.83-1.72-7.57-6.72-17.33-10.42-27.48-10.42-11.07,0-21.48,4.31-29.31,12.14-6.53,6.53-10.6,14.8-11.79,23.93,1.18-12.93,6.93-25.12,16.14-34.33,10.61-10.61,24.71-16.45,39.7-16.45s29.09,5.84,39.7,16.45l21.89,21.89-8.26,8.3-9.48,9.48-29.28-29.28Z"/>
    <path class="st0" d="M219.17,279.85l-8.26,8.26-9.46,9.46-19.77-19.77-9.49-9.49c-.6-.59-1.21-1.17-1.83-1.72-7.83-6.95-17.67-10.43-27.5-10.43-10.62,0-21.23,4.05-29.33,12.15-6.73,6.73-10.66,15.19-11.8,23.95,1.2-12.52,6.6-24.71,16.19-34.3,10.96-10.95,25.32-16.44,39.68-16.44s28.72,5.48,39.68,16.44l21.89,21.89Z"/>
    <path class="st2" d="M142.84,339.15c-11.08,0-21.5-4.32-29.34-12.16-6.54-6.54-10.62-14.83-11.81-23.97-.34-3.57-.34-7.17,0-10.72,1.2-9.19,5.28-17.47,11.81-24.01,7.84-7.84,18.26-12.16,29.35-12.16,10.16,0,19.94,3.71,27.52,10.44.64.56,1.26,1.14,1.83,1.72l9.47,9.47c-5.33-5.24-12.36-8.16-19.85-8.16-5.86,0-11.46,1.78-16.21,5.16-1.27.9-2.49,1.93-3.61,3.06l-.39.39-.24.24c-15.86,15.86-15.86,41.59-.04,57.41,1.14,1.14,2.35,2.21,3.59,3.19-.71.08-1.4.1-2.09.1Z"/>
    <path class="st5" d="M181.67,277.8c-5.48-5.48-12.66-8.22-19.84-8.22-5.69,0-11.38,1.72-16.22,5.16-1.27.9-2.48,1.92-3.61,3.06-.13.13-.26.26-.39.39-.1.09-.19.19-.29.28-15.85,15.85-15.85,41.55,0,57.4,1.15,1.15,2.35,2.22,3.6,3.19-11.29.56-22.77-3.47-31.39-12.1-6.73-6.73-10.66-15.19-11.8-23.95v-.02c-.34-3.56-.34-7.14,0-10.69,0-.01,0-.03,0-.04,1.14-8.76,5.08-17.22,11.8-23.95,8.1-8.1,18.71-12.15,29.33-12.15,9.83,0,19.66,3.47,27.5,10.43.62.55,1.24,1.13,1.83,1.72l9.49,9.49Z"/>
    <path class="st13" d="M144.9,339.09c-1.25-.98-2.46-2.05-3.6-3.2-15.84-15.84-15.84-41.61,0-57.44l.29-.28c-10.47,10.96-10.3,28.57.43,39.29,5.29,5.29,12.33,8.21,19.82,8.21h0c7.46,0,14.48-2.9,19.77-8.15l-9.4,9.48c-7.3,7.3-16.99,11.6-27.29,12.11h-.01s0,0,0,0Z"/>
    <path class="st9" d="M181.62,317.53l-9.44,9.44c-7.58,7.58-17.35,11.61-27.27,12.1-1.24-.98-2.45-2.05-3.6-3.19-15.85-15.85-15.85-41.55,0-57.4.09-.09.19-.19.29-.28-10.57,10.98-10.44,28.46.39,39.29,10.94,10.94,28.67,10.96,39.63.05Z"/>
    <path class="st14" d="M336.57,292.26c-1.19-9.13-5.27-17.4-11.79-23.93-7.83-7.83-18.24-12.14-29.31-12.14-.69,0-1.37.02-2.05.05-7.12-5.61-16.03-8.7-25.11-8.7-10.83,0-21.02,4.22-28.68,11.88l1.41-1.49c10.6-10.6,24.7-16.44,39.7-16.44s29.1,5.84,39.71,16.44c9.2,9.2,14.95,21.39,16.19,34.32h-.06Z"/>
    <path class="st7" d="M336.6,292.26c-1.14-8.76-5.08-17.22-11.8-23.95-8.62-8.62-20.1-12.65-31.38-12.1-15.93-12.58-39.11-11.51-53.81,3.19l1.45-1.45c21.92-21.91,57.45-21.91,79.37,0,9.59,9.59,14.98,21.78,16.18,34.3Z"/>
    <path class="st15" d="M170.02,347.79c-9.1,0-18.02-3.09-25.12-8.7,10.3-.56,19.98-4.85,27.27-12.14l29.33-29.33-.07-.03,9.46-9.5,8.26-8.26,20.44-20.44c7.67-7.67,17.87-11.89,28.72-11.89,9.1,0,18.02,3.09,25.13,8.7-10.3.55-19.98,4.84-27.27,12.14l-29.26,29.26-.08.07.08.04-8.19,8.23-1.28,1.27-8.25,8.26-20.44,20.44c-7.67,7.67-17.87,11.9-28.72,11.9Z"/>
    <path class="st3" d="M293.42,256.21c-9.92.48-19.7,4.52-27.28,12.1l-9.49,9.49-19.77,19.77-.08.07.08.08-8.19,8.19-1.28,1.27-8.26,8.26-20.44,20.44c-14.71,14.71-37.88,15.77-53.81,3.19,9.92-.49,19.69-4.52,27.27-12.1l9.44-9.44,19.82-19.82.07-.07-.07-.07,9.46-9.46,8.26-8.26,20.44-20.44c14.71-14.7,37.88-15.76,53.81-3.19Z"/>
    <path class="st4" d="M280.73,353.79c-15,0-29.1-5.84-39.7-16.45l-21.89-21.89,8.25-8.3,9.46-9.46,19.81,19.77,9.49,9.49c.58.58,1.2,1.16,1.83,1.72,7.57,6.72,17.32,10.42,27.48,10.42,11.07,0,21.48-4.31,29.31-12.14,6.53-6.53,10.6-14.81,11.79-23.94-1.18,12.94-6.93,25.13-16.13,34.33-10.61,10.61-24.71,16.45-39.7,16.45Z"/>
    <path class="st12" d="M336.6,303.02c-1.2,12.52-6.59,24.72-16.18,34.3-10.96,10.96-25.32,16.44-39.68,16.44s-28.72-5.48-39.68-16.44l-21.89-21.89,8.26-8.26,1.28-1.27,8.19-8.19,19.77,19.77,9.49,9.49c.6.6,1.21,1.17,1.83,1.72,7.83,6.95,17.66,10.43,27.49,10.43,10.62,0,21.23-4.05,29.33-12.15,6.73-6.73,10.66-15.19,11.8-23.95Z"/>
    <path class="st19" d="M295.47,339.15c-10.17,0-19.94-3.71-27.51-10.44-.64-.56-1.25-1.14-1.83-1.72l-9.49-9.49c5.33,5.25,12.37,8.17,19.86,8.17,5.89,0,11.51-1.8,16.27-5.2,1.26-.9,2.46-1.92,3.56-3.01.11-.11.22-.22.32-.33.12-.11.24-.23.35-.34,15.82-15.82,15.82-41.55,0-57.37-1.13-1.13-2.34-2.21-3.59-3.19.7-.08,1.39-.1,2.07-.1,11.09,0,21.51,4.32,29.35,12.16,6.53,6.54,10.61,14.82,11.81,23.96.34,3.6.34,7.2,0,10.74-1.19,9.16-5.27,17.45-11.81,23.99-7.84,7.84-18.27,12.16-29.35,12.16Z"/>
    <path class="st21" d="M336.6,302.99v.02c-1.14,8.76-5.07,17.22-11.8,23.95-8.1,8.1-18.72,12.15-29.33,12.15-9.83,0-19.66-3.47-27.49-10.43-.62-.55-1.24-1.13-1.83-1.72l-9.49-9.49c5.48,5.48,12.66,8.22,19.84,8.22,5.71,0,11.43-1.73,16.28-5.2,1.25-.89,2.44-1.9,3.56-3.01.11-.11.22-.22.32-.33.12-.11.24-.23.35-.34,15.85-15.85,15.85-41.56,0-57.41-1.15-1.15-2.35-2.21-3.59-3.19,11.29-.56,22.76,3.47,31.38,12.1,6.72,6.73,10.66,15.19,11.8,23.95,0,.01,0,.03,0,.04.33,3.56.33,7.14,0,10.69Z"/>
    <path class="st11" d="M296.63,317.13c10.58-10.92,10.44-28.56-.32-39.31-5.3-5.29-12.34-8.21-19.82-8.21s-14.53,2.92-19.82,8.21l9.45-9.53c7.3-7.3,17-11.6,27.29-12.11,1.27.99,2.48,2.06,3.61,3.2,15.84,15.84,15.84,41.61,0,57.45-.12.12-.23.23-.35.34l-.04-.04Z"/>
    <path class="st10" d="M297.01,316.81c-.12.12-.23.23-.35.34,10.64-10.98,10.53-28.51-.32-39.35-10.96-10.96-28.73-10.96-39.68,0l9.49-9.49c7.58-7.58,17.35-11.61,27.28-12.1,1.24.98,2.44,2.04,3.59,3.19,15.85,15.85,15.85,41.56,0,57.41Z"/>
  </g>
  <g>
    <path class="st6" d="M388.41,346.97v-100.1h20.86l52.45,64.64v-64.64h20.71v100.1h-19.35l-53.96-66.78v66.78h-20.71Z"/>
    <path class="st18" d="M538.8,348.4c-7.86,0-14.99-1.72-21.39-5.15-6.4-3.43-11.46-8.05-15.19-13.87-3.73-5.81-5.59-12.34-5.59-19.59s1.79-13.77,5.37-19.59c3.58-5.81,8.44-10.44,14.59-13.87,6.14-3.43,13-5.15,20.56-5.15s14.26,1.74,20.1,5.22c5.84,3.48,10.45,8.25,13.83,14.3,3.37,6.06,5.06,12.89,5.06,20.52v5.15h-58.34c.91,2.96,2.39,5.63,4.46,8.01,2.06,2.38,4.63,4.22,7.71,5.51,3.07,1.29,6.37,1.93,9.9,1.93s6.78-.5,9.75-1.5c2.97-1,5.52-2.45,7.63-4.36l13.6,11.73c-4.84,3.72-9.8,6.43-14.89,8.15-5.09,1.72-10.81,2.57-17.15,2.57ZM517.48,302.36h38.24c-.71-2.95-1.99-5.55-3.85-7.79-1.87-2.24-4.08-4-6.65-5.29s-5.42-1.93-8.54-1.93-6,.62-8.62,1.86c-2.62,1.24-4.84,2.98-6.65,5.22-1.81,2.24-3.12,4.89-3.93,7.94Z"/>
    <path class="st8" d="M574.47,346.97l30.23-37.89-29.47-36.61h24.18l17.23,22.16,17.23-22.16h23.28l-29.02,36.32,30.83,38.18h-24.18l-18.59-23.74-18.59,23.74h-23.12Z"/>
    <path class="st1" d="M698.4,348.4c-7.86,0-14.99-1.72-21.39-5.15-6.4-3.43-11.44-8.05-15.11-13.87-3.68-5.81-5.52-12.34-5.52-19.59s1.84-13.8,5.52-19.66c3.68-5.86,8.71-10.51,15.11-13.94,6.4-3.43,13.53-5.15,21.39-5.15s14.99,1.72,21.39,5.15c6.4,3.43,11.44,8.08,15.11,13.94,3.68,5.86,5.52,12.42,5.52,19.66s-1.84,13.78-5.52,19.59c-3.68,5.82-8.72,10.44-15.11,13.87-6.4,3.43-13.53,5.15-21.39,5.15ZM698.4,331.39c4.13,0,7.83-.98,11.11-2.93,3.27-1.95,5.87-4.55,7.78-7.79,1.91-3.24,2.87-6.86,2.87-10.87s-.96-7.77-2.87-11.01c-1.92-3.24-4.51-5.84-7.78-7.79-3.28-1.95-6.98-2.93-11.11-2.93s-7.71.98-11.03,2.93c-3.33,1.96-5.95,4.55-7.86,7.79-1.92,3.24-2.87,6.91-2.87,11.01s.96,7.63,2.87,10.87c1.91,3.24,4.53,5.84,7.86,7.79,3.33,1.96,7,2.93,11.03,2.93Z"/>
  </g>
</svg>