<svg width="64" height="64" viewBox="0 0 64 64" xmlns="http://www.w3.org/2000/svg">
  <defs>
    <linearGradient id="studiesGradient" x1="0%" y1="0%" x2="100%" y2="100%">
      <stop offset="0%" style="stop-color:#3b82f6;stop-opacity:1" />
      <stop offset="100%" style="stop-color:#1d4ed8;stop-opacity:1" />
    </linearGradient>
  </defs>
  
  <!-- Document background -->
  <rect x="12" y="8" width="40" height="48" rx="4" fill="white" stroke="url(#studiesGradient)" stroke-width="2"/>
  
  <!-- Document lines -->
  <line x1="18" y1="18" x2="46" y2="18" stroke="#e5e7eb" stroke-width="2"/>
  <line x1="18" y1="24" x2="42" y2="24" stroke="#e5e7eb" stroke-width="2"/>
  <line x1="18" y1="30" x2="46" y2="30" stroke="#e5e7eb" stroke-width="2"/>
  <line x1="18" y1="36" x2="38" y2="36" stroke="#e5e7eb" stroke-width="2"/>
  
  <!-- Electrical symbol -->
  <g transform="translate(32, 42)">
    <circle cx="0" cy="0" r="8" fill="none" stroke="url(#studiesGradient)" stroke-width="2"/>
    <path d="M -4 -2 L 0 -6 L 4 -2 L 0 2 Z" fill="url(#studiesGradient)"/>
    <line x1="0" y1="-8" x2="0" y2="-12" stroke="url(#studiesGradient)" stroke-width="2"/>
    <line x1="0" y1="8" x2="0" y2="12" stroke="url(#studiesGradient)" stroke-width="2"/>
  </g>
  
  <!-- Graph lines -->
  <polyline points="18,42 22,38 26,40 30,36 34,38 38,34" fill="none" stroke="url(#studiesGradient)" stroke-width="2"/>
</svg>