<?xml version="1.0" encoding="UTF-8"?>
<svg id="Layer_1" xmlns="http://www.w3.org/2000/svg" version="1.1" viewBox="0 0 841.89 595.28">
  <!-- Generator: Adobe Illustrator 29.4.0, SVG Export Plug-In . SVG Version: 2.1.0 Build 152)  -->
  <defs>
    <style>
      .st0 {
        fill: #fff;
      }
    </style>
  </defs>
  <path class="st0" d="M320.16,389.53c-24.54,0-47.62-9.56-64.97-26.92-15.06-15.05-24.47-35-26.5-56.16,2,14.94,8.67,28.49,19.37,39.18,12.82,12.82,29.85,19.88,47.97,19.88,1.12,0,2.26-.03,3.39-.08,11.64,9.18,26.22,14.23,41.1,14.23h0c17.74,0,34.41-6.91,46.96-19.45l-2.33,2.41c-17.36,17.36-40.43,26.92-64.98,26.92Z"/>
  <path class="st0" d="M387.49,360.22l-2.37,2.37c-35.88,35.88-94.04,35.88-129.91,0-15.7-15.69-24.53-35.65-26.49-56.15,1.86,14.34,8.3,28.19,19.32,39.21,14.11,14.11,32.9,20.72,51.38,19.8,26.07,20.58,64,18.84,88.07-5.23Z"/>
  <path class="st0" d="M344.03,249.65c-.95-.95-1.96-1.9-3-2.82-12.4-11-28.38-17.06-44.99-17.06-18.12,0-35.17,7.06-47.98,19.88-10.68,10.68-17.36,24.23-19.31,39.18,1.97-21.16,11.38-41.11,26.45-56.17,17.36-17.36,40.43-26.91,64.97-26.91s47.61,9.56,64.97,26.91l35.83,35.83-13.53,13.56-15.5,15.5-47.91-47.91Z"/>
  <path class="st0" d="M420.95,268.51l-13.53,13.52-15.48,15.48-32.35-32.35-15.53-15.53c-.97-.97-1.98-1.92-3-2.82-12.82-11.38-28.92-17.07-45.01-17.07-17.38,0-34.75,6.63-48.01,19.89-11.01,11.01-17.45,24.86-19.32,39.2,1.96-20.49,10.8-40.45,26.49-56.15,17.93-17.93,41.44-26.91,64.95-26.91s47.02,8.97,64.95,26.91l35.83,35.83Z"/>
  <path class="st0" d="M296.03,365.56c-18.13,0-35.18-7.06-48.01-19.89-10.7-10.7-17.38-24.26-19.33-39.22-.55-5.84-.55-11.73,0-17.55,1.96-15.03,8.64-28.59,19.33-39.29,12.83-12.83,29.89-19.9,48.02-19.9,16.63,0,32.62,6.06,45.03,17.08,1.04.92,2.05,1.87,3,2.82l15.5,15.51c-8.7-8.62-20.22-13.38-32.47-13.38-9.59,0-18.77,2.92-26.54,8.45-2.08,1.48-4.07,3.16-5.91,5l-.63.64c-.16.15-.32.31-.47.46-25.89,25.89-25.89,68.03,0,93.92,1.87,1.87,3.85,3.63,5.88,5.23-1.14.11-2.28.13-3.41.13Z"/>
  <path class="st0" d="M359.59,265.16c-8.97-8.97-20.73-13.46-32.48-13.46-9.31,0-18.63,2.81-26.56,8.45-2.08,1.47-4.06,3.14-5.92,5.01-.21.21-.42.43-.63.64-.16.15-.32.31-.47.46-25.95,25.95-25.95,68.01,0,93.96,1.88,1.88,3.85,3.63,5.88,5.23-18.48.92-37.27-5.69-51.38-19.8-11.02-11.02-17.46-24.87-19.32-39.21v-.04c-.55-5.82-.55-11.68,0-17.5,0-.02,0-.05,0-.07,1.87-14.34,8.31-28.19,19.32-39.2,13.26-13.26,30.63-19.89,48.01-19.89,16.09,0,32.19,5.69,45.01,17.07,1.02.9,2.03,1.85,3,2.82l15.53,15.53Z"/>
  <path class="st0" d="M299.4,365.47c-2.04-1.6-4.02-3.36-5.89-5.23-25.92-25.92-25.92-68.08,0-94,.15-.15.31-.31.47-.46-17.17,17.92-16.89,46.75.67,64.31,8.67,8.67,20.19,13.44,32.46,13.44h0c12.21,0,23.71-4.74,32.37-13.35l-15.4,15.49c-11.94,11.94-27.8,18.98-44.66,19.81h-.01s0,0,0,0Z"/>
  <path class="st0" d="M359.5,330.2l-15.44,15.44c-12.4,12.4-28.4,19-44.64,19.8-2.04-1.6-4.01-3.35-5.88-5.23-25.95-25.95-25.95-68.01,0-93.96.15-.15.31-.31.47-.46-17.31,17.98-17.09,46.59.63,64.31,17.9,17.9,46.92,17.93,64.87.09Z"/>
  <path class="st0" d="M613.14,288.83c-1.95-14.95-8.62-28.5-19.3-39.18-12.82-12.82-29.86-19.88-47.99-19.88-1.12,0-2.25.03-3.36.08-11.64-9.18-26.23-14.23-41.11-14.23-17.74,0-34.41,6.91-46.96,19.45l2.33-2.41c17.35-17.35,40.43-26.91,64.97-26.91s47.62,9.56,64.98,26.91c15.06,15.06,24.47,35,26.49,56.17h-.06Z"/>
  <path class="st0" d="M613.17,288.83c-1.87-14.34-8.31-28.19-19.31-39.2-14.11-14.11-32.89-20.71-51.37-19.8-26.07-20.58-64.01-18.84-88.08,5.22l2.37-2.37c35.87-35.87,94.03-35.87,129.91,0,15.7,15.7,24.52,35.66,26.49,56.15Z"/>
  <path class="st0" d="M340.51,379.71c-14.88,0-29.48-5.06-41.11-14.24,16.86-.88,32.7-7.91,44.64-19.84l48.01-48.01-.12-.08,15.48-15.52,13.53-13.52,33.46-33.46c12.55-12.55,29.25-19.46,47-19.46,14.89,0,29.49,5.06,41.12,14.24-16.85.87-32.7,7.9-44.64,19.84l-47.89,47.89-.13.12.13.09-13.4,13.44-2.09,2.08-13.51,13.52-33.46,33.46c-12.56,12.55-29.25,19.47-47,19.47Z"/>
  <path class="st0" d="M542.49,229.83c-16.24.79-32.24,7.4-44.65,19.8l-15.53,15.53-32.35,32.35-.13.12.13.13-13.4,13.4-2.09,2.08-13.51,13.52-33.46,33.46c-24.07,24.07-62.01,25.81-88.07,5.23,16.24-.8,32.24-7.4,44.64-19.8l15.44-15.44,32.44-32.45.12-.12-.12-.12,15.48-15.48,13.53-13.52,33.46-33.46c24.07-24.06,62.01-25.8,88.08-5.22Z"/>
  <path class="st0" d="M521.73,389.53c-24.54,0-47.62-9.56-64.97-26.92l-35.82-35.82,13.51-13.56,2.09-2.08,13.4-13.4,32.39,32.35,15.53,15.53c.95.95,1.96,1.9,3,2.82,12.39,11,28.36,17.06,44.98,17.06,18.13,0,35.17-7.06,47.99-19.88,10.69-10.69,17.36-24.25,19.3-39.19-1.97,21.18-11.38,41.12-26.44,56.17-17.36,17.36-40.43,26.92-64.97,26.92Z"/>
  <path class="st0" d="M613.17,306.44c-1.96,20.5-10.79,40.46-26.49,56.15-17.94,17.94-41.45,26.91-64.95,26.91s-47.02-8.97-64.95-26.91l-35.82-35.82,13.51-13.52,2.09-2.08,13.4-13.4,32.35,32.35,15.53,15.53c.97.97,1.98,1.92,3,2.82,12.82,11.38,28.91,17.07,45,17.07,17.38,0,34.75-6.63,48.01-19.89,11.01-11.02,17.45-24.87,19.31-39.21Z"/>
  <path class="st0" d="M545.85,365.57c-16.64,0-32.62-6.06-45.02-17.08-1.04-.92-2.05-1.87-3-2.82l-15.53-15.53c8.71,8.63,20.23,13.4,32.49,13.4,9.64,0,18.85-2.94,26.64-8.51,2.07-1.47,4.03-3.13,5.83-4.93.17-.17.36-.35.52-.54.2-.18.39-.37.58-.56,25.9-25.9,25.9-68.03,0-93.93-1.86-1.86-3.84-3.62-5.87-5.22,1.13-.11,2.26-.13,3.38-.13,18.14,0,35.2,7.06,48.03,19.89,10.69,10.7,17.37,24.26,19.32,39.21.55,5.9.55,11.79,0,17.58-1.94,15-8.62,28.56-19.32,39.26-12.83,12.83-29.89,19.9-48.03,19.9Z"/>
  <path class="st0" d="M613.17,306.4v.04c-1.86,14.34-8.3,28.19-19.31,39.21-13.26,13.26-30.64,19.89-48.01,19.89-16.09,0-32.19-5.69-45-17.07-1.02-.9-2.03-1.85-3-2.82l-15.53-15.53c8.97,8.97,20.72,13.45,32.47,13.45,9.35,0,18.71-2.84,26.65-8.51,2.04-1.46,4-3.1,5.83-4.93.17-.17.36-.36.52-.54.2-.18.39-.37.58-.56,25.95-25.95,25.95-68.02,0-93.97-1.88-1.88-3.84-3.62-5.88-5.22,18.48-.91,37.26,5.69,51.37,19.8,11,11.01,17.44,24.86,19.31,39.2,0,.02,0,.05,0,.07.55,5.82.55,11.68,0,17.5Z"/>
  <path class="st0" d="M547.77,329.56c17.32-17.89,17.09-46.77-.52-64.38-8.67-8.67-20.2-13.45-32.46-13.45s-23.79,4.77-32.45,13.45l15.49-15.57c11.95-11.95,27.82-18.99,44.67-19.81,2.06,1.61,4.04,3.37,5.9,5.23,25.92,25.92,25.92,68.09,0,94.01-.19.19-.38.38-.58.56l-.04-.04Z"/>
  <path class="st0" d="M548.37,329.02c-.19.19-.38.38-.58.56,17.41-17.98,17.23-46.66-.52-64.42-17.94-17.94-47.02-17.94-64.95,0l15.53-15.53c12.4-12.4,28.4-19.01,44.65-19.8,2.04,1.6,4,3.34,5.88,5.22,25.95,25.95,25.95,68.02,0,93.97Z"/>
</svg>